<?xml version="1.0"?>
<svg
        xmlns="http://www.w3.org/2000/svg"
        xmlns:xlink="http://www.w3.org/1999/xlink"
        width="81px" height="88px">
    <path fill-rule="evenodd"  fill="#ffffff"
          d="M62.681,75.303 C61.683,81.960 55.960,87.069 49.028,87.069 L20.489,87.069 C12.855,87.069 6.667,80.878 6.667,73.242 L6.667,28.159 C2.753,27.222 0.033,23.189 1.285,18.790 C2.123,15.844 4.722,13.809 7.775,13.570 C7.973,13.554 8.167,13.547 8.358,13.547 C9.078,13.547 9.756,13.655 10.423,13.854 C10.537,13.888 10.657,13.904 10.778,13.904 C11.436,13.904 12.103,13.426 11.794,12.776 C11.794,12.757 11.794,12.738 11.794,12.718 C11.794,5.825 17.471,0.237 24.362,0.237 C28.640,0.237 32.506,2.392 34.754,5.674 C35.086,6.160 35.619,6.421 36.164,6.421 C36.492,6.421 36.824,6.326 37.120,6.130 C38.765,5.035 40.740,4.396 42.865,4.396 C46.777,4.396 50.184,6.558 51.959,9.752 C52.284,10.338 52.885,10.691 53.525,10.691 C53.688,10.691 53.855,10.668 54.020,10.619 C54.834,10.381 55.695,10.253 56.586,10.253 C56.793,10.253 57.000,10.259 57.209,10.273 C61.735,10.574 65.406,14.266 65.686,18.794 C65.860,21.628 64.730,24.195 62.851,25.979 L62.851,35.991 L67.873,35.991 C74.989,35.991 80.780,41.783 80.780,48.902 L80.780,56.219 C80.780,66.422 72.748,74.762 62.681,75.303 ZM9.429,73.243 C9.429,79.353 14.380,84.306 20.488,84.306 L49.028,84.306 C55.137,84.306 60.089,79.352 60.089,73.242 L60.089,37.373 L60.089,28.490 C56.344,28.478 42.120,28.433 30.455,28.392 L30.455,33.800 C30.455,36.394 28.353,38.497 25.759,38.497 L24.905,38.497 C22.312,38.497 20.210,36.394 20.210,33.800 L20.210,28.367 C15.523,28.350 11.607,28.336 9.429,28.329 L9.429,73.243 ZM62.930,18.964 C62.737,15.844 60.144,13.236 57.026,13.029 C56.879,13.019 56.732,13.014 56.586,13.014 C55.976,13.014 55.374,13.100 54.796,13.270 C54.382,13.391 53.954,13.453 53.525,13.453 C51.878,13.453 50.354,12.549 49.545,11.094 C48.197,8.666 45.637,7.158 42.865,7.158 C41.357,7.158 39.899,7.598 38.648,8.430 C37.908,8.922 37.049,9.183 36.164,9.183 C34.689,9.183 33.310,8.455 32.476,7.235 C30.660,4.583 27.627,2.999 24.362,2.999 C19.061,2.999 14.729,7.189 14.560,12.403 C14.736,13.262 14.582,14.155 14.107,14.908 C13.423,15.993 12.147,16.666 10.778,16.666 C10.386,16.666 10.000,16.610 9.632,16.500 C9.201,16.371 8.784,16.309 8.358,16.309 C8.238,16.309 8.115,16.313 7.991,16.323 C6.044,16.476 4.454,17.741 3.940,19.547 C3.537,20.961 3.744,22.378 4.522,23.536 C5.267,24.646 6.438,25.379 7.749,25.561 L20.219,25.605 C21.740,25.610 22.971,26.845 22.971,28.367 L22.971,33.800 C22.971,34.867 23.838,35.735 24.905,35.735 L25.759,35.735 C26.826,35.735 27.694,34.867 27.694,33.800 L27.694,28.392 C27.694,27.658 27.986,26.954 28.506,26.436 C29.023,25.920 29.725,25.630 30.455,25.630 C30.458,25.630 30.461,25.630 30.464,25.630 L54.489,25.722 L56.588,25.731 C58.359,25.731 60.004,25.019 61.219,23.727 C62.432,22.436 63.040,20.744 62.930,18.964 ZM78.018,48.902 C78.018,43.306 73.467,38.754 67.873,38.754 L62.851,38.754 L62.851,72.549 C71.317,71.932 78.018,64.844 78.018,56.219 L78.018,48.902 ZM22.450,42.674 L22.450,73.398 C22.450,74.247 21.763,74.934 20.914,74.934 C20.066,74.934 19.379,74.247 19.379,73.398 L19.379,42.674 C19.379,41.825 20.066,41.138 20.914,41.138 C21.763,41.138 22.450,41.825 22.450,42.674 ZM30.129,41.138 C30.977,41.138 31.664,41.825 31.664,42.674 L31.664,73.398 C31.664,74.247 30.977,74.934 30.129,74.934 C29.280,74.934 28.593,74.247 28.593,73.398 L28.593,42.674 C28.593,41.825 29.280,41.138 30.129,41.138 ZM39.343,41.138 C40.191,41.138 40.878,41.825 40.878,42.674 L40.878,73.398 C40.878,74.247 40.191,74.934 39.343,74.934 C38.494,74.934 37.807,74.247 37.807,73.398 L37.807,42.674 C37.807,41.825 38.494,41.138 39.343,41.138 ZM48.557,41.138 C49.406,41.138 50.092,41.825 50.092,42.674 L50.092,73.398 C50.092,74.247 49.406,74.934 48.557,74.934 C47.708,74.934 47.021,74.247 47.021,73.398 L47.021,42.674 C47.021,41.825 47.708,41.138 48.557,41.138 Z"/>
</svg>

