<?xml version="1.0"?>
<svg
        xmlns="http://www.w3.org/2000/svg"
        xmlns:xlink="http://www.w3.org/1999/xlink"
        width="65px" height="74px">
    <path fill-rule="evenodd"  fill="#fff"
          d="M63.292,46.781 C63.106,46.856 62.914,46.891 62.722,46.891 C62.113,46.891 61.537,46.526 61.298,45.926 L50.182,18.174 L46.867,24.166 L48.550,24.166 C49.399,24.166 50.086,24.853 50.086,25.702 L50.086,57.962 C50.086,66.432 43.196,73.324 34.729,73.324 L16.301,73.324 C7.834,73.324 0.944,66.432 0.944,57.962 L0.944,25.702 C0.944,24.853 1.631,24.166 2.480,24.166 L7.229,24.166 L5.758,18.686 C5.650,18.291 5.707,17.873 5.911,17.519 C6.112,17.166 6.448,16.908 6.841,16.803 L16.775,14.138 L14.255,11.807 C13.634,11.231 13.595,10.259 14.171,9.637 L22.513,0.615 C23.089,-0.007 24.057,-0.048 24.684,0.529 L33.703,8.873 C34.324,9.449 34.363,10.421 33.787,11.044 L30.048,15.089 L38.856,14.566 C39.705,14.533 40.428,15.171 40.482,16.017 L40.980,24.166 L43.355,24.166 L49.060,13.855 C49.348,13.338 49.858,13.039 50.500,13.066 C51.091,13.104 51.610,13.477 51.829,14.028 L64.147,44.783 C64.462,45.570 64.081,46.465 63.292,46.781 ZM16.301,70.251 L34.729,70.251 C39.266,70.251 43.225,67.774 45.353,64.107 L5.677,64.107 C7.805,67.774 11.764,70.251 16.301,70.251 ZM9.120,19.373 L10.408,24.166 L19.948,24.166 L18.020,16.985 L9.120,19.373 ZM30.488,10.087 L23.724,3.828 L17.471,10.594 L24.234,16.852 L30.488,10.087 ZM22.059,20.191 L23.126,24.166 L29.358,24.166 L29.816,22.808 L22.059,20.191 ZM37.510,17.750 L28.313,18.312 L28.360,19.075 L32.254,20.388 C33.059,20.659 33.490,21.530 33.217,22.334 L32.600,24.166 L37.903,24.166 L37.510,17.750 ZM4.015,27.238 L4.015,57.962 C4.015,59.024 4.165,60.050 4.420,61.034 L46.610,61.034 C46.865,60.050 47.015,59.024 47.015,57.962 L47.015,27.238 L4.015,27.238 Z"/>
</svg>

