<?xml version="1.0"?>
<svg xmlns="http://www.w3.org/2000/svg"
        xmlns:xlink="http://www.w3.org/1999/xlink"
        width="50px" height="65px">
    <path fill-rule="evenodd"  fill="#fff"
          d="M45.985,64.500 L4.015,64.500 C1.806,64.500 0.015,62.710 0.015,60.501 L0.015,22.653 C0.015,21.593 0.436,20.575 1.186,19.825 L19.339,1.672 C20.089,0.921 21.106,0.500 22.167,0.500 L45.985,0.500 C48.194,0.500 49.985,2.291 49.985,4.500 L49.985,60.501 C49.985,62.710 48.194,64.500 45.985,64.500 ZM19.739,6.927 L6.572,20.095 L19.739,20.095 L19.739,6.927 ZM45.985,4.500 L22.405,4.500 L22.405,21.429 C22.405,22.165 21.810,22.762 21.073,22.762 L4.015,22.762 L4.015,60.501 L45.985,60.501 L45.985,4.500 ZM10.073,29.854 L38.902,29.854 C39.639,29.854 40.235,30.450 40.235,31.186 C40.235,31.923 39.639,32.520 38.902,32.520 L10.073,32.520 C9.337,32.520 8.739,31.923 8.739,31.186 C8.739,30.450 9.337,29.854 10.073,29.854 ZM10.073,36.976 L24.487,36.976 C25.224,36.976 25.820,37.573 25.820,38.309 C25.820,39.046 25.224,39.643 24.487,39.643 L10.073,39.643 C9.337,39.643 8.739,39.046 8.739,38.309 C8.739,37.573 9.337,36.976 10.073,36.976 ZM10.073,44.100 L38.902,44.100 C39.639,44.100 40.235,44.696 40.235,45.432 C40.235,46.169 39.639,46.766 38.902,46.766 L10.073,46.766 C9.337,46.766 8.739,46.169 8.739,45.432 C8.739,44.696 9.337,44.100 10.073,44.100 ZM10.073,51.223 L17.925,51.223 C18.661,51.223 19.259,51.819 19.259,52.555 C19.259,53.292 18.661,53.889 17.925,53.889 L10.073,53.889 C9.337,53.889 8.739,53.292 8.739,52.555 C8.739,51.819 9.337,51.223 10.073,51.223 ZM25.001,51.223 L39.415,51.223 C40.150,51.223 40.747,51.819 40.747,52.555 C40.747,53.292 40.150,53.889 39.415,53.889 L25.001,53.889 C24.265,53.889 23.667,53.292 23.667,52.555 C23.667,51.819 24.265,51.223 25.001,51.223 ZM39.415,39.643 L31.562,39.643 C30.825,39.643 30.229,39.046 30.229,38.309 C30.229,37.573 30.825,36.976 31.562,36.976 L39.415,36.976 C40.150,36.976 40.747,37.573 40.747,38.309 C40.747,39.046 40.150,39.643 39.415,39.643 Z"/>
</svg>